<?xml version="1.0" standalone="no"?>
<!DOCTYPE svg PUBLIC "-//W3C//DTD SVG 20010904//EN"
 "http://www.w3.org/TR/2001/REC-SVG-20010904/DTD/svg10.dtd">
<svg version="1.0" xmlns="http://www.w3.org/2000/svg"
 width="512.000000pt" height="512.000000pt" viewBox="0 0 512.000000 512.000000"
 preserveAspectRatio="xMidYMid meet">
<metadata>
Created by potrace 1.11, written by Peter Selinger 2001-2013
</metadata>
<g transform="translate(0.000000,512.000000) scale(0.100000,-0.100000)"
fill="#000000" stroke="none">
<path d="M2512 4593 c-72 -93 -174 -215 -227 -273 -309 -335 -426 -545 -499
-892 l-22 -106 -28 50 c-112 200 -329 400 -554 513 -84 42 -257 105 -330 120
-30 6 -33 5 -29 -11 16 -53 49 -229 57 -296 18 -157 4 -215 -164 -692 -68
-191 -86 -288 -86 -455 0 -190 47 -377 124 -500 14 -22 26 -43 26 -45 0 -20
-328 132 -405 188 -122 88 -259 253 -316 381 l-22 50 -13 -89 c-21 -149 -27
-333 -14 -444 23 -208 161 -620 291 -872 162 -313 416 -566 701 -700 341 -159
678 -183 993 -69 96 35 219 106 296 170 l52 43 15 -24 c33 -53 140 -146 203
-177 36 -18 106 -43 155 -55 81 -20 113 -23 339 -23 293 0 353 10 625 101 370
124 588 263 808 514 152 174 315 456 407 705 37 99 150 518 180 664 14 71 44
281 40 281 -1 0 -31 -35 -66 -77 -99 -120 -237 -252 -319 -306 -79 -51 -257
-143 -264 -136 -2 2 11 50 30 105 61 183 77 279 78 469 1 191 -5 222 -76 380
-106 234 -157 473 -174 803 -3 72 -10 132 -14 132 -14 0 -216 -107 -312 -166
-53 -32 -134 -86 -180 -119 -105 -75 -314 -284 -353 -352 -16 -29 -33 -53 -36
-53 -4 0 -9 21 -13 47 -9 69 -90 302 -145 418 -83 175 -173 308 -324 477 -47
53 -108 131 -137 172 -51 77 -150 268 -150 292 0 38 -30 9 -148 -143z m169 6
c58 -120 132 -227 249 -359 189 -214 315 -431 404 -700 46 -136 65 -233 66
-325 l0 -50 35 79 c48 110 94 177 194 280 96 98 229 203 370 290 89 55 272
156 283 156 3 0 8 -60 12 -132 15 -298 71 -548 171 -763 64 -138 79 -206 78
-370 0 -104 -6 -167 -22 -245 -30 -141 -87 -315 -114 -344 -19 -21 -214 -103
-223 -94 -1 2 13 55 32 118 114 385 132 751 46 964 -27 68 -215 426 -224 426
-4 0 -56 -68 -115 -152 -83 -116 -131 -172 -208 -242 -55 -50 -168 -158 -252
-240 -169 -165 -155 -162 -168 -46 -9 87 -51 285 -84 400 -68 233 -185 484
-311 662 -66 94 -210 252 -262 289 l-29 21 -55 -43 c-130 -100 -271 -286 -363
-479 -98 -205 -182 -499 -216 -755 -9 -66 -18 -135 -21 -152 l-5 -33 -32 38
c-96 113 -270 249 -422 329 -136 72 -219 161 -302 326 -46 90 -42 91 -116 -34
-177 -300 -226 -644 -146 -1018 26 -120 68 -253 113 -356 19 -44 31 -82 25
-83 -12 -5 -201 16 -221 23 -41 16 -133 207 -165 345 -22 94 -24 333 -4 435 8
39 55 189 106 335 133 380 129 365 129 515 0 100 -5 154 -23 233 -13 57 -20
106 -17 110 10 10 172 -46 271 -93 139 -67 240 -139 356 -254 136 -136 211
-247 276 -411 8 -21 11 -12 17 54 21 237 114 511 238 703 51 78 155 205 282
343 48 52 140 162 203 243 64 81 117 146 120 144 2 -2 22 -42 44 -88z m15
-1031 c96 -192 154 -439 173 -744 12 -186 2 -274 -40 -363 -66 -142 -164 -196
-293 -160 -91 25 -168 142 -186 281 -31 238 4 557 88 800 34 98 45 120 120
246 l55 93 19 -31 c10 -17 39 -72 64 -122z m1304 -565 c0 -21 -5 -103 -10
-183 -18 -255 -54 -428 -110 -540 -48 -95 -157 -169 -251 -170 -42 0 -50 4
-88 46 -56 60 -71 99 -71 184 0 173 102 343 318 532 132 115 195 167 205 168
4 0 7 -17 7 -37z m-2756 -5 c112 -88 266 -221 308 -266 100 -107 177 -255 193
-369 10 -73 -14 -148 -66 -206 -39 -45 -43 -47 -95 -47 -62 0 -103 15 -170 61
-98 67 -160 221 -204 508 -32 205 -38 351 -14 351 3 0 25 -15 48 -32z m3806
-574 c-29 -150 -134 -555 -176 -678 -48 -138 -178 -400 -257 -519 -235 -349
-478 -540 -869 -681 -270 -97 -399 -125 -623 -133 -457 -17 -707 98 -787 360
-17 57 -20 86 -16 166 7 119 29 182 109 301 185 277 462 479 762 555 50 12
198 37 327 54 285 38 404 61 580 112 249 71 506 182 660 284 36 24 119 99 185
167 66 68 121 123 123 122 1 0 -7 -50 -18 -110z m-4949 9 c63 -97 180 -215
278 -281 108 -72 297 -157 421 -189 130 -34 311 -42 446 -20 98 16 443 60 559
72 33 3 105 1 160 -5 219 -23 360 -85 496 -220 92 -91 159 -195 159 -246 0
-23 -12 -42 -51 -79 -71 -69 -196 -238 -231 -311 -58 -124 -70 -277 -31 -400
19 -63 19 -63 -77 -136 -165 -125 -419 -208 -637 -208 -170 0 -419 63 -593
150 -302 151 -562 427 -711 756 -51 113 -145 371 -183 500 -56 193 -66 259
-66 417 0 124 8 267 15 267 1 0 22 -30 46 -67z"/>
<path d="M4586 1949 c-156 -134 -309 -217 -475 -259 -101 -25 -187 -36 -486
-60 -137 -12 -290 -29 -340 -40 -274 -57 -469 -179 -550 -344 -107 -216 -42
-443 149 -515 90 -34 186 -44 346 -38 341 14 697 157 982 394 203 169 284 317
383 706 29 114 53 207 52 207 -1 0 -28 -23 -61 -51z"/>
<path d="M337 1838 c74 -241 121 -344 231 -498 193 -273 553 -531 857 -616 33
-9 114 -19 181 -21 148 -6 243 14 382 82 279 138 369 376 242 640 -127 265
-341 352 -662 271 -153 -38 -351 -67 -513 -73 -118 -4 -156 -2 -243 16 -179
37 -308 103 -439 225 l-62 57 26 -83z"/>
</g>
</svg>
